<svg width="33" height="12" viewBox="0 0 33 12" fill="none" xmlns="http://www.w3.org/2000/svg">
<line x1="0.5" y1="5.5" x2="10.5" y2="5.5" stroke="#F37332"/>
<path d="M16.0245 1.46353C16.1741 1.00287 16.8259 1.00287 16.9755 1.46353L17.7348 3.80041C17.8018 4.00642 17.9937 4.1459 18.2104 4.1459H20.6675C21.1519 4.1459 21.3532 4.76571 20.9614 5.05041L18.9735 6.49468C18.7983 6.622 18.7249 6.84768 18.7919 7.0537L19.5512 9.39058C19.7009 9.85123 19.1736 10.2343 18.7818 9.94959L16.7939 8.50532C16.6186 8.378 16.3814 8.378 16.2061 8.50532L14.2182 9.94959C13.8264 10.2343 13.2991 9.85123 13.4488 9.39058L14.2081 7.0537C14.2751 6.84768 14.2017 6.622 14.0265 6.49468L12.0386 5.05041C11.6468 4.76571 11.8481 4.1459 12.3325 4.1459H14.7896C15.0063 4.1459 15.1982 4.00642 15.2652 3.80041L16.0245 1.46353Z" fill="#F37332"/>
<line x1="22.5" y1="5.5" x2="32.5" y2="5.5" stroke="#F37332"/>
</svg>
